# xmcd
#
# Track frame offsets: 
#        150
#        16285
#        34907
#        52341
#        65787
#        89951
#        110909
#        132843
#        148237
#        189789
#        204557
#        221079
#
# Disc length: 3122 seconds
#
# Revision: 0
# Processed by: cddbd v1.5.2PL0 Copyright (c) Steve Scherf et al.
# Submitted via: ExactAudioCopyFreeDBPlugin 1.0
#
DISCID=c80c300c
DTITLE=Richard Studholme - Zoned
DYEAR=2005
DGENRE=Blues
TTITLE0=Latenight part 1
TTITLE1=Please Please Please
TTITLE2=You Can't Catch Me
TTITLE3=Buzzin'
TTITLE4=Rain Down Tears
TTITLE5=Bar Room Life
TTITLE6=Temperature
TTITLE7=Paycheck to Paycheck
TTITLE8=Havana Moon
TTITLE9=47 Pontiac
TTITLE10=Strange Affair
TTITLE11=Latenite part 2
EXTD=
EXTT0=
EXTT1=
EXTT2=
EXTT3=
EXTT4=
EXTT5=
EXTT6=
EXTT7=
EXTT8=
EXTT9=
EXTT10=
EXTT11=
PLAYORDER=
